<svg xmlns="http://www.w3.org/2000/svg" width="256" height="256" viewBox="0 0 100 100"><rect width="100" height="100" rx="50" fill="#d980a2"></rect><path fill="#fff" d="M66.15 61.69L74.63 61.69Q73.44 71.84 67.14 77.36Q60.83 82.87 50.37 82.87L50.37 82.87Q39.04 82.87 32.20 74.74Q25.37 66.61 25.37 52.99L25.37 52.99L25.37 46.84Q25.37 37.92 28.55 31.15Q31.74 24.38 37.59 20.75Q43.43 17.13 51.12 17.13L51.12 17.13Q61.32 17.13 67.47 22.82Q73.62 28.51 74.63 38.57L74.63 38.57L66.15 38.57Q65.05 30.93 61.38 27.50Q57.71 24.07 51.12 24.07L51.12 24.07Q43.03 24.07 38.44 30.05Q33.85 36.03 33.85 47.06L33.85 47.06L33.85 53.25Q33.85 63.67 38.20 69.82Q42.55 75.97 50.37 75.97L50.37 75.97Q57.40 75.97 61.16 72.79Q64.92 69.60 66.15 61.69L66.15 61.69Z"></path></svg>