<svg xmlns="http://www.w3.org/2000/svg" enable-background="new 0 0 1920 1080" viewBox="0 0 1920 1080" id="business-discussion"><path fill="#abbdff" d="M1457.21,837.83H485.14c-8.35,0-15.12-6.77-15.12-15.12V140.69c0-8.35,6.77-15.12,15.12-15.12h972.07   c8.35,0,15.12,6.77,15.12,15.12v682.03C1472.33,831.06,1465.56,837.83,1457.21,837.83z" opacity=".2"></path><path fill="#002663" d="M1401.15,384.85h-57.62c-7.62,0-13.85,6.23-13.85,13.85v21.38l13.85-7.53h57.62     c7.62,0,13.85-6.23,13.85-13.85C1415,391.08,1408.77,384.85,1401.15,384.85z" opacity=".27"></path><path fill="#dce6ff" d="M1400.15,383.85h-57.62c-7.62,0-13.85,6.23-13.85,13.85v21.38l13.85-7.53h57.62     c7.62,0,13.85-6.23,13.85-13.85C1414,390.08,1407.77,383.85,1400.15,383.85z"></path><path fill="#002663" d="M701.68,445.21h-61.05c-2.6,0-4.72-2.11-4.72-4.72v-137.6c0-2.6,2.11-4.72,4.72-4.72h61.05     c2.6,0,4.72,2.11,4.72,4.72v137.6C706.4,443.1,704.29,445.21,701.68,445.21z" opacity=".27"></path><path fill="#dce6ff" d="M700.68,444.21h-61.05c-2.6,0-4.72-2.11-4.72-4.72v-137.6c0-2.6,2.11-4.72,4.72-4.72h61.05     c2.6,0,4.72,2.11,4.72,4.72v137.6C705.4,442.1,703.29,444.21,700.68,444.21z"></path><circle cx="670.16" cy="335.16" r="26.34" fill="#fff"></circle><path fill="#002663" d="M617.74,445.21h-61.05c-2.6,0-4.72-2.11-4.72-4.72v-137.6c0-2.6,2.11-4.72,4.72-4.72h61.05     c2.6,0,4.72,2.11,4.72,4.72v137.6C622.45,443.1,620.34,445.21,617.74,445.21z" opacity=".27"></path><path fill="#dce6ff" d="M616.74,444.21h-61.05c-2.6,0-4.72-2.11-4.72-4.72v-137.6c0-2.6,2.11-4.72,4.72-4.72h61.05     c2.6,0,4.72,2.11,4.72,4.72v137.6C621.45,442.1,619.34,444.21,616.74,444.21z"></path><polygon fill="none" stroke="#603913" stroke-linejoin="round" stroke-miterlimit="10" points="879.65 689.88 857.07 699.44 876.64 714.22"></polygon><polygon fill="none" stroke="#603913" stroke-linejoin="round" stroke-miterlimit="10" points="1051.83 737.21 1044.59 751.91 1060.94 750.84"></polygon><circle cx="1355.16" cy="531.97" r="13.91" fill="none" stroke="#603913" stroke-miterlimit="10"></circle><path fill="#002663" d="M1409.86,354.51h-341.41c-2.04,0-3.7-1.66-3.7-3.7v-149.7c0-2.04,1.66-3.7,3.7-3.7h341.41      c2.04,0,3.7,1.66,3.7,3.7v149.7C1413.57,352.86,1411.91,354.51,1409.86,354.51z" opacity=".27"></path><path fill="#dce6ff" d="M1408.86,353.51h-341.41c-2.04,0-3.7-1.66-3.7-3.7v-149.7c0-2.04,1.66-3.7,3.7-3.7h341.41      c2.04,0,3.7,1.66,3.7,3.7v149.7C1412.57,351.86,1410.91,353.51,1408.86,353.51z"></path><path fill="#fff" d="M1190.71,231.65v86.62c0,3.29-2.67,5.96-5.96,5.96h-86.62c-3.27,0-5.94-2.67-5.94-5.96v-86.62    c0-3.29,2.67-5.96,5.94-5.96h86.62C1188.04,225.69,1190.71,228.36,1190.71,231.65z"></path><path fill="#c0d3f9" d="M1190.71,283.24v35.03c0,3.29-2.67,5.96-5.96,5.96h-86.62c-3.28,0-5.94-2.66-5.94-5.94v-10.98l32.31-31.05    c2.17-2.08,5.49-2.37,7.98-0.7l24.06,16.12l13.02-14.95c2.03-2.33,5.44-2.88,8.09-1.29L1190.71,283.24z"></path><g opacity=".27"><path fill="#002663" d="M1242.66,242c0,2.78-0.74,5.39-2.06,7.63c-2.65,4.55-7.58,7.62-13.21,7.62c-5.64,0-10.55-3.07-13.19-7.62      c-1.31-2.25-2.06-4.85-2.06-7.63c0-8.43,6.83-15.27,15.25-15.27C1235.83,226.73,1242.66,233.57,1242.66,242z"></path><path fill="#002663" d="M1240.61,249.64c-2.65,4.55-7.58,7.62-13.21,7.62c-5.64,0-10.55-3.07-13.19-7.62      c2.63-4.57,7.56-7.63,13.19-7.63C1233.05,242,1237.98,245.07,1240.61,249.64z"></path><circle cx="1227.4" cy="235.92" r="6.07" fill="#002663"></circle></g><path fill="#e8e8e8" d="M1241.66,241c0,2.78-0.74,5.39-2.06,7.63c-2.65,4.55-7.58,7.62-13.21,7.62c-5.64,0-10.55-3.07-13.19-7.62       c-1.31-2.25-2.06-4.85-2.06-7.63c0-8.43,6.83-15.27,15.25-15.27C1234.83,225.73,1241.66,232.57,1241.66,241z"></path><path fill="#fff" d="M1239.61,248.64c-2.65,4.55-7.58,7.62-13.21,7.62c-5.64,0-10.55-3.07-13.19-7.62       c2.63-4.57,7.56-7.63,13.19-7.63C1232.05,241,1236.98,244.07,1239.61,248.64z"></path><circle cx="1226.4" cy="234.92" r="6.07" fill="#fff"></circle><path fill="#ffc880" d="M1325.96,243.17l-3.77-18.06c-8.43,1.93-16.15,6.99-21.25,14.78c-5.1,7.79-6.65,16.88-5.05,25.38l18.06-3.77     c-0.63-3.86,0.11-7.96,2.43-11.51C1318.7,246.45,1322.17,244.13,1325.96,243.17z"></path><path fill="#00aeef" d="M1366.9,255.07c-0.08-0.42-0.17-0.85-0.26-1.26c-1.88-8.22-6.81-15.75-14.41-20.72     c-7.61-4.98-16.48-6.5-24.77-4.92l3.67,17.62c3.77-0.63,7.78,0.1,11.24,2.36c3.46,2.26,5.73,5.65,6.65,9.35     c0.11,0.42,0.2,0.84,0.26,1.26c0.63,3.77-0.1,7.77-2.37,11.22c-2.26,3.46-5.63,5.72-9.34,6.65c-0.41,0.11-0.83,0.19-1.26,0.26     c-3.76,0.64-7.77-0.09-11.23-2.35c-3.46-2.26-5.73-5.65-6.66-9.36l-17.62,3.67c1.88,8.23,6.81,15.76,14.42,20.74     c7.6,4.97,16.46,6.49,24.76,4.93c0.42-0.08,0.85-0.17,1.26-0.26c8.23-1.88,15.76-6.81,20.74-14.42     C1366.96,272.24,1368.47,263.37,1366.9,255.07z"></path><circle cx="1300.39" cy="312.33" r="3.5" fill="#ffc880"></circle><circle cx="1300.39" cy="322.6" r="3.5" fill="#00aeef"></circle><line x1="1311.42" x2="1365.9" y1="312.33" y2="312.33" fill="none" stroke="#00aeef" stroke-linecap="round" stroke-miterlimit="10" stroke-width="2"></line><line x1="1311.42" x2="1365.9" y1="322.6" y2="322.6" fill="none" stroke="#00aeef" stroke-linecap="round" stroke-miterlimit="10" stroke-width="2"></line><line x1="1213.15" x2="1266.18" y1="273.26" y2="273.26" fill="none" stroke="#00aeef" stroke-linecap="round" stroke-miterlimit="10" stroke-width="3"></line><line x1="1213.15" x2="1239.66" y1="286.98" y2="286.98" fill="none" stroke="#00aeef" stroke-linecap="round" stroke-miterlimit="10" stroke-width="3"></line><path fill="#002663" d="M795.84,255.25h-243.5c-1.9,0-3.43-1.54-3.43-3.43v-50.97c0-1.9,1.54-3.43,3.43-3.43h243.5      c1.9,0,3.43,1.54,3.43,3.43v50.97C799.27,253.71,797.73,255.25,795.84,255.25z" opacity=".27"></path><path fill="#dce6ff" d="M794.84,254.25h-243.5c-1.9,0-3.43-1.54-3.43-3.43v-50.97c0-1.9,1.54-3.43,3.43-3.43h243.5      c1.9,0,3.43,1.54,3.43,3.43v50.97C798.27,252.71,796.73,254.25,794.84,254.25z"></path><g opacity=".27"><path fill="#002663" d="M595.51,255.25c0,2.78-0.74,5.39-2.06,7.63c-2.65,4.55-7.58,7.62-13.21,7.62c-5.64,0-10.55-3.07-13.19-7.62      c-1.31-2.25-2.06-4.85-2.06-7.63c0-8.43,6.83-15.27,15.25-15.27C588.67,239.98,595.51,246.82,595.51,255.25z"></path><path fill="#002663" d="M593.45,262.88c-2.65,4.55-7.58,7.62-13.21,7.62c-5.64,0-10.55-3.07-13.19-7.62      c2.63-4.57,7.56-7.63,13.19-7.63C585.89,255.25,590.82,258.31,593.45,262.88z"></path><circle cx="580.25" cy="249.17" r="6.07" fill="#002663"></circle></g><path fill="#e8e8e8" d="M594.51,254.25c0,2.78-0.74,5.39-2.06,7.63c-2.65,4.55-7.58,7.62-13.21,7.62       c-5.64,0-10.55-3.07-13.19-7.62c-1.31-2.25-2.06-4.85-2.06-7.63c0-8.43,6.83-15.27,15.25-15.27       C587.67,238.98,594.51,245.82,594.51,254.25z"></path><path fill="#fff" d="M592.45,261.88c-2.65,4.55-7.58,7.62-13.21,7.62c-5.64,0-10.55-3.07-13.19-7.62       c2.63-4.57,7.56-7.63,13.19-7.63C584.89,254.25,589.82,257.31,592.45,261.88z"></path><circle cx="579.25" cy="248.17" r="6.07" fill="#fff"></circle><g opacity=".27"><path fill="#002663" d="M620.96,255.25c0,2.78-0.74,5.39-2.06,7.63c-2.65,4.55-7.58,7.62-13.21,7.62c-5.64,0-10.55-3.07-13.19-7.62      c-1.31-2.25-2.06-4.85-2.06-7.63c0-8.43,6.83-15.27,15.25-15.27C614.13,239.98,620.96,246.82,620.96,255.25z"></path><path fill="#002663" d="M618.9,262.88c-2.65,4.55-7.58,7.62-13.21,7.62c-5.64,0-10.55-3.07-13.19-7.62      c2.63-4.57,7.56-7.63,13.19-7.63C611.35,255.25,616.28,258.31,618.9,262.88z"></path><circle cx="605.7" cy="249.17" r="6.07" fill="#002663"></circle></g><path fill="#e8e8e8" d="M619.96,254.25c0,2.78-0.74,5.39-2.06,7.63c-2.65,4.55-7.58,7.62-13.21,7.62       c-5.64,0-10.55-3.07-13.19-7.62c-1.31-2.25-2.06-4.85-2.06-7.63c0-8.43,6.83-15.27,15.25-15.27       C613.13,238.98,619.96,245.82,619.96,254.25z"></path><path fill="#fff" d="M617.9,261.88c-2.65,4.55-7.58,7.62-13.21,7.62c-5.64,0-10.55-3.07-13.19-7.62       c2.63-4.57,7.56-7.63,13.19-7.63C610.35,254.25,615.28,257.31,617.9,261.88z"></path><circle cx="604.7" cy="248.17" r="6.07" fill="#fff"></circle><g opacity=".27"><path fill="#002663" d="M646.41,255.25c0,2.78-0.74,5.39-2.06,7.63c-2.65,4.55-7.58,7.62-13.21,7.62c-5.64,0-10.55-3.07-13.19-7.62      c-1.31-2.25-2.06-4.85-2.06-7.63c0-8.43,6.83-15.27,15.25-15.27C639.58,239.98,646.41,246.82,646.41,255.25z"></path><path fill="#002663" d="M644.36,262.88c-2.65,4.55-7.58,7.62-13.21,7.62c-5.64,0-10.55-3.07-13.19-7.62      c2.63-4.57,7.56-7.63,13.19-7.63C636.8,255.25,641.73,258.31,644.36,262.88z"></path><circle cx="631.16" cy="249.17" r="6.07" fill="#002663"></circle></g><path fill="#e8e8e8" d="M645.41,254.25c0,2.78-0.74,5.39-2.06,7.63c-2.65,4.55-7.58,7.62-13.21,7.62       c-5.64,0-10.55-3.07-13.19-7.62c-1.31-2.25-2.06-4.85-2.06-7.63c0-8.43,6.83-15.27,15.25-15.27       C638.58,238.98,645.41,245.82,645.41,254.25z"></path><path fill="#fff" d="M643.36,261.88c-2.65,4.55-7.58,7.62-13.21,7.62c-5.64,0-10.55-3.07-13.19-7.62       c2.63-4.57,7.56-7.63,13.19-7.63C635.8,254.25,640.73,257.31,643.36,261.88z"></path><circle cx="630.16" cy="248.17" r="6.07" fill="#fff"></circle><g opacity=".27"><path fill="#002663" d="M671.87,255.25c0,2.78-0.74,5.39-2.06,7.63c-2.65,4.55-7.58,7.62-13.21,7.62c-5.64,0-10.55-3.07-13.19-7.62      c-1.31-2.25-2.06-4.85-2.06-7.63c0-8.43,6.83-15.27,15.25-15.27C665.03,239.98,671.87,246.82,671.87,255.25z"></path><path fill="#002663" d="M669.81,262.88c-2.65,4.55-7.58,7.62-13.21,7.62c-5.64,0-10.55-3.07-13.19-7.62      c2.63-4.57,7.56-7.63,13.19-7.63C662.25,255.25,667.19,258.31,669.81,262.88z"></path><circle cx="656.61" cy="249.17" r="6.07" fill="#002663"></circle></g><path fill="#e8e8e8" d="M670.87,254.25c0,2.78-0.74,5.39-2.06,7.63c-2.65,4.55-7.58,7.62-13.21,7.62       c-5.64,0-10.55-3.07-13.19-7.62c-1.31-2.25-2.06-4.85-2.06-7.63c0-8.43,6.83-15.27,15.25-15.27       C664.03,238.98,670.87,245.82,670.87,254.25z"></path><path fill="#fff" d="M668.81,261.88c-2.65,4.55-7.58,7.62-13.21,7.62c-5.64,0-10.55-3.07-13.19-7.62       c2.63-4.57,7.56-7.63,13.19-7.63C661.25,254.25,666.19,257.31,668.81,261.88z"></path><circle cx="655.61" cy="248.17" r="6.07" fill="#fff"></circle><line x1="568.32" x2="711.23" y1="212.73" y2="212.73" fill="none" stroke="#00aeef" stroke-linecap="round" stroke-miterlimit="10" stroke-width="3"></line><line x1="568.32" x2="642.41" y1="227.14" y2="227.14" fill="none" stroke="#00aeef" stroke-linecap="round" stroke-miterlimit="10" stroke-width="3"></line><line x1="663.38" x2="748.9" y1="227.14" y2="227.14" fill="none" stroke="#00aeef" stroke-linecap="round" stroke-miterlimit="10" stroke-width="3"></line><path fill="#002663" d="M1007.99,356.01h-243.5c-1.9,0-3.43-1.54-3.43-3.43v-50.97c0-1.9,1.54-3.43,3.43-3.43h243.5      c1.9,0,3.43,1.54,3.43,3.43v50.97C1011.42,354.47,1009.89,356.01,1007.99,356.01z" opacity=".27"></path><path fill="#dce6ff" d="M1006.99,355.01h-243.5c-1.9,0-3.43-1.54-3.43-3.43v-50.97c0-1.9,1.54-3.43,3.43-3.43h243.5      c1.9,0,3.43,1.54,3.43,3.43v50.97C1010.42,353.47,1008.89,355.01,1006.99,355.01z"></path><g opacity=".27"><path fill="#002663" d="M807.42,327.1c0,2.78-0.74,5.39-2.06,7.63c-2.65,4.55-7.58,7.62-13.21,7.62c-5.64,0-10.55-3.07-13.19-7.62      c-1.31-2.25-2.06-4.85-2.06-7.63c0-8.43,6.83-15.27,15.25-15.27C800.59,311.83,807.42,318.67,807.42,327.1z"></path><path fill="#002663" d="M805.36,334.74c-2.65,4.55-7.58,7.62-13.21,7.62c-5.64,0-10.55-3.07-13.19-7.62      c2.63-4.57,7.56-7.63,13.19-7.63C797.81,327.1,802.74,330.17,805.36,334.74z"></path><circle cx="792.16" cy="321.02" r="6.07" fill="#002663"></circle></g><path fill="#e8e8e8" d="M806.42,326.1c0,2.78-0.74,5.39-2.06,7.63c-2.65,4.55-7.58,7.62-13.21,7.62c-5.64,0-10.55-3.07-13.19-7.62       c-1.31-2.25-2.06-4.85-2.06-7.63c0-8.43,6.83-15.27,15.25-15.27C799.59,310.83,806.42,317.67,806.42,326.1z"></path><path fill="#fff" d="M804.36,333.74c-2.65,4.55-7.58,7.62-13.21,7.62c-5.64,0-10.55-3.07-13.19-7.62       c2.63-4.57,7.56-7.63,13.19-7.63C796.81,326.1,801.74,329.17,804.36,333.74z"></path><circle cx="791.16" cy="320.02" r="6.07" fill="#fff"></circle><line x1="825.62" x2="968.53" y1="317.73" y2="317.73" fill="none" stroke="#00aeef" stroke-linecap="round" stroke-miterlimit="10" stroke-width="3"></line><line x1="825.62" x2="899.71" y1="332.15" y2="332.15" fill="none" stroke="#00aeef" stroke-linecap="round" stroke-miterlimit="10" stroke-width="3"></line><line x1="918.52" x2="955.56" y1="332.15" y2="332.15" fill="none" stroke="#00aeef" stroke-linecap="round" stroke-miterlimit="10" stroke-width="3"></line><path fill="#002663" d="M1009.59,255.24H852.52c-1.72,0-3.12-1.4-3.12-3.12V110.92c0-1.72,1.4-3.12,3.12-3.12h157.07      c1.72,0,3.12,1.4,3.12,3.12v141.21C1012.71,253.84,1011.31,255.24,1009.59,255.24z" opacity=".27"></path><path fill="#dce6ff" d="M1008.59,254.24H851.52c-1.72,0-3.12-1.4-3.12-3.12V109.92c0-1.72,1.4-3.12,3.12-3.12h157.07      c1.72,0,3.12,1.4,3.12,3.12v141.21C1011.71,252.84,1010.31,254.24,1008.59,254.24z"></path><line x1="867.1" x2="968.53" y1="125.57" y2="125.57" fill="none" stroke="#00aeef" stroke-linecap="round" stroke-miterlimit="10" stroke-width="3"></line><circle cx="869.49" cy="149.5" r="5.44" fill="#fff"></circle><path fill="#00aeef" d="M865.87,146.62l3.99,7.38c0,0,2.58-5.72,11.83-9.62c0,0-6.15,0-11.86,4.53L865.87,146.62z"></path><circle cx="869.49" cy="184.5" r="5.44" fill="#fff"></circle><path fill="#00aeef" d="M865.87,181.62l3.99,7.38c0,0,2.58-5.72,11.83-9.62c0,0-6.15,0-11.86,4.53L865.87,181.62z"></path><circle cx="869.49" cy="219.49" r="5.44" fill="#fff"></circle><path fill="#00aeef" d="M865.87,216.61l3.99,7.38c0,0,2.58-5.72,11.83-9.62c0,0-6.15,0-11.86,4.53L865.87,216.61z"></path><line x1="892.09" x2="988.37" y1="149.5" y2="149.5" fill="none" stroke="#00aeef" stroke-linecap="round" stroke-miterlimit="10"></line><line x1="864.04" x2="988.37" y1="165.58" y2="165.58" fill="none" stroke="#00aeef" stroke-linecap="round" stroke-miterlimit="10"></line><line x1="892.09" x2="988.37" y1="184.5" y2="184.5" fill="none" stroke="#00aeef" stroke-linecap="round" stroke-miterlimit="10"></line><line x1="864.04" x2="988.37" y1="200.57" y2="200.57" fill="none" stroke="#00aeef" stroke-linecap="round" stroke-miterlimit="10"></line><line x1="892.09" x2="988.37" y1="219.49" y2="219.49" fill="none" stroke="#00aeef" stroke-linecap="round" stroke-miterlimit="10"></line><line x1="864.04" x2="988.37" y1="235.57" y2="235.57" fill="none" stroke="#00aeef" stroke-linecap="round" stroke-miterlimit="10"></line><path fill="none" stroke="#ffd19f" stroke-miterlimit="10" d="M1412.41,567.14c0,0,15.59,77.02-23.82,138.47c-39.4,61.44-49.37,66.12-49.37,66.12"></path><path fill="#ffd19f" d="M1414.69,578.39c0,0-2.44-18.04-23-12.22C1391.7,566.18,1399.16,582.72,1414.69,578.39z"></path><path fill="#ffd19f" d="M1413.51 578.25c0 0 .45-18.2 21.52-14.66C1435.04 563.59 1429.43 580.85 1413.51 578.25zM1416.43 602.28c0 0-1.98-18.1-22.68-12.8C1393.75 589.48 1400.79 606.21 1416.43 602.28z"></path><path fill="#ffd19f" d="M1415.25 602.11c0 0 .91-18.19 21.89-14.1C1437.14 588.01 1431.1 605.12 1415.25 602.11zM1414.48 630.8c0 0 .64-18.2-20.61-15.92C1393.87 614.88 1398.44 632.45 1414.48 630.8z"></path><path fill="#ffd19f" d="M1413.34 630.46c0 0 3.51-17.87 23.69-10.82C1437.03 619.65 1428.59 635.71 1413.34 630.46zM1409.21 660.31c0 0 3.41-17.89-17.94-18.88C1391.27 641.43 1393.1 659.48 1409.21 660.31z"></path><path fill="#ffd19f" d="M1408.13 659.8c0 0 6.2-17.12 25.06-7.08C1433.19 652.72 1422.4 667.31 1408.13 659.8zM1412.76 569c0 0-10.06-8.57-6.08-22.24C1406.69 546.76 1425.06 554.12 1412.76 569z"></path><path fill="none" stroke="#abbdff" stroke-linecap="round" stroke-miterlimit="10" d="M490.84,573.96c0,0-15.59,77.02,23.82,138.47c39.4,61.44,49.37,66.12,49.37,66.12"></path><path fill="#abbdff" d="M707.88,847.23l-54.28-4.11l-80.19-6.07l-60.69-4.59c0,0-30.86-22.67-21.46-70.42   c2.19-11.14,6.59-23.63,14.05-37.5c39.52-73.43,13.33-97.4,50.96-123.46c23.3-16.14,22.67-40.68,26.12-60.5   c2.13-12.18,5.81-22.6,17.53-28.16c30.82-14.62,74.17,70.71,33.79,133.87c-37.01,57.89,22.88,81.18,12.51,126.47   c-0.95,4.15-2.49,8.49-4.74,13.04c-14.41,29.13,5.79,44.68,27.66,52.85C686.44,845.12,704.77,846.96,707.88,847.23z"></path><path fill="#8fabf9" d="M670.03,841.18l-16.43,1.94l-65.09,7.73l-15.1-13.8l-82.15-75.01c2.19-11.14,6.59-23.63,14.05-37.5   c39.52-73.43,13.33-97.4,50.96-123.46c23.3-16.14,22.67-40.68,26.12-60.5c29.38,13.04,57.55,30.54,34.32,42.7   c-41.56,21.74-53.91,48.62-39.69,86.75c14.2,38.13-14.83,49.99,4.74,89.15c19.59,39.16,62.94,9.18,62.94,9.18l1.52,4.4l22.92,65.89   L670.03,841.18z"></path><path fill="#abbdff" d="M1476.19,816.6l-85.33,32.36l-14.35,5.44l-3.41,1.29c0,0-2.76-0.29-7.9-2.38   c-8.26-3.35-22.64-11.37-41.48-30.33c-8.64-8.7-10.68-19.29-9.75-30.92c2.32-29.49,23.63-65.62,4.42-94.35   c-26.79-40.04-4.65-86.87,14.56-105.16c1.71-1.62,3.46-3.12,5.24-4.45c18.24-13.97,39.18-12.79,41.31,27.51   c0.91,16.96,0.97,32.97,3.79,47.31c0.04,0.13,0.06,0.27,0.1,0.4c0.29,1.45,0.59,2.87,0.95,4.28c0.02,0.06,0.04,0.13,0.04,0.19   c5.24,20.85,17.51,37.79,48.81,48.41c18.2,6.19,28.54,14.94,34.25,23.87c11.38,17.88,4.19,36.46,4.19,36.46L1476.19,816.6z"></path><path fill="#8fabf9" d="M1338.19 588.11c18.24-13.97 39.18-12.79 41.31 27.51.91 16.96.97 32.97 3.79 47.31C1375.52 630.7 1360.41 600.56 1338.19 588.11zM1390.87 848.96l4.23-29.47 72.34-79.41c-5.71-8.93-16.05-17.69-34.25-23.87-31.3-10.62-43.58-27.57-48.81-48.41 8.15 38.89 2.32 80.8-21.46 91.13-17.76 7.73-38.61 24.37-48.95 33.14-.93 11.63 1.1 22.22 9.75 30.92 18.85 18.96 33.22 26.98 41.48 30.33l11.31 1.09L1390.87 848.96z"></path><path fill="#8b5e3c" d="M1200.19,317.15c-1.16,4.78-4.97,7.25-4.97,7.25s2.82,7.41-3.01,12.72c-5.83,5.31-16.62,1.62-16.62,1.62   l-43.29-7.63c0,0-10.07-7.5-7.62-16.89c0.51-1.92,1.05-3.45,1.58-4.65c1.88-4.19,3.69-4.38,4-4.38c-0.48-0.02-4.72-0.38-5.08-6.49   c-0.38-6.45,7.75-6.95,9.8-5.18c0,0-0.48-9.1,9.33-5.24c0,0,1.52-5.27,9.21-5.24c2.06,0.02,3.77,0.4,5.2,0.97   c0.02,0.02,0.02,0.02,0.04,0.02c3.86,1.52,5.48,4.34,5.48,4.34s5.41-5.94,13.21-0.63c7.79,5.31,5.35,12.64,5.35,12.64   s11.77-2.63,16.39,7.88C1200.74,311.8,1200.8,314.77,1200.19,317.15z"></path><path fill="#754c29" d="M1192.21,337.12c-5.83,5.31-16.62,1.62-16.62,1.62l-43.29-7.63c0,0-10.07-7.5-7.62-16.89   c0.51-1.92,1.05-3.45,1.58-4.65h0.02c0,0-2.13,6.78,3.98,6.57c6.13-0.19,11.16-5.71,11.16-5.71s13,23,25.7,8.34   c0,0,8.22,2.27,13.33-4.66c0,0-2.06,14.47,14.77,10.3C1195.22,324.4,1198.04,331.81,1192.21,337.12z"></path><path fill="#603913" d="M885.97,498.73c-7.9,6.78-19.08,12.66-32.57,16.94c-41.12,13.04-230.2,56.87-273.82,52.16   c-7.42-0.8-13.69-3.22-18.79-6.76c-23.45-16.3-22.5-56.48,1.85-74.19c0.02-0.02,0.04-0.04,0.06-0.06c0.11-0.08,0.23-0.17,0.34-0.25   c2.91-2.08,5.31-4.42,7.29-6.97c1.28-1.66,2.38-3.39,3.35-5.22c9.33-17.69,5.27-42.83,16.09-64.52c2.61-5.25,6.09-10.32,10.87-15   c23.17-22.79,65.05-17.42,82.07-34.1c2.89-2.82,5.06-6.28,6.3-10.62c0.19-0.69,0.4-1.35,0.61-2.02v-0.02   c9.35-30.14,28.08-38.06,46.01-31.68c0.02,0,0.02,0,0.04,0c1.96,0.69,3.88,1.54,5.81,2.57c7.16,3.83,10.43-10.41,31.13,11.84   c1.68,1.79,3.2,3.69,4.65,5.65c0,0,0,0,0,0.02c13.52,18.35,18.92,42.36,60.62,48.24c31.81,4.51,32.46,27.99,36.46,47.08   c0.69,3.31,1.48,6.47,2.57,9.4c0,0.02,0,0.02,0,0.04c1.71,4.65,4.13,8.62,7.98,11.5C904.57,467.47,902.15,484.93,885.97,498.73z"></path><path fill="#3c2415" d="M714.32,367.93c0,0-1.59,25.89-35.25,34.32c-33.66,8.43-56.6,35.97-59.66,63.2   c-3.06,27.23,221.82-17.34,221.82-17.34s-23.38-25.03-45.14-32.91c-21.76-7.88-41.59-36.5-44.32-59.31S714.32,367.93,714.32,367.93   z"></path><path fill="none" stroke="#4a76d8" stroke-linecap="round" stroke-miterlimit="10" d="M1349.11,611.38c0,0-30.18,132.63,54.31,216.99"></path><path fill="#ffdfb8" d="M1529.96,676.01c-6.24,5.14-11.44,9.23-15.61,12.74v0.02c-16.89,14.2-17.34,19.13-4.45,45.9   c0,0.02,0,0.02,0,0.04c1.48,3.07,3.14,6.43,4.97,10.13c39.24,79.35-37.52,91.59-37.52,91.59h-114.78   c-13.44-57.09,72.34-72.23,58.43-102.08c-13.92-29.85,2.15-60.41,29.6-77.83c27.47-17.44,29.34-68.44,59.74-103.7   c5.29-6.13,10.38-7.27,14.98-4.78C1547.19,559.78,1558.3,652.71,1529.96,676.01z"></path><path fill="none" stroke="#dda45f" stroke-linecap="round" stroke-miterlimit="10" d="M1514.35,600.78c0,0-64.44,121.98-84.04,232.3"></path><path fill="none" stroke="#4a76d8" stroke-linecap="round" stroke-miterlimit="10" d="M610.77,555.22c0,0-68.5,166.53-9.27,292.05"></path><path fill="#ffdfb8" d="M465.51,836.41c0,0-66.09-37.9-51.4-95.82c14.69-57.91-17.13-65.53-33.04-101.5   c-15.91-35.97-9.79-78.73,34.27-56.74c44.06,21.99,33.04,111.9,72.21,109.78c39.16-2.12,68.27,12.79,56.78,59.8   c-11.49,47.01,62.26,39.65,57.18,84.47L465.51,836.41z"></path><path fill="none" stroke="#dda45f" stroke-linecap="round" stroke-miterlimit="10" d="M404.73,616.6c0,0,71.87,163.04,130.58,219.82"></path><path fill="#e5c2a8" d="M969.07,398.41c0,0-9.14,1.2-11.04,6c2.53-8.22,6.23-17.04,10.41-17.48   C976.38,386.11,969.8,395.11,969.07,398.41z"></path><path fill="#b5c2f4" d="M960.13,382.62l-2.03-3.15c-0.6-0.93-1.82-1.21-2.76-0.65l-0.54,0.32c-1.04,0.62-1.32,1.99-0.61,2.96   l2.26,3.1c0.71,0.97,2.11,1.12,3.01,0.32l0.3-0.27C960.52,384.58,960.67,383.47,960.13,382.62z"></path><path fill="#4361f7" d="M995.12,439.98c0.04,0.59-0.61,0.97-1.09,0.65l-0.67-0.44l-6.19-4.09c-0.23-0.15-0.42-0.34-0.57-0.57    l-31.93-49.04c-0.59-0.91-0.32-2.15,0.61-2.74l4.25-2.65c0.91-0.55,2.11-0.3,2.68,0.61l31.93,49c0.19,0.29,0.29,0.61,0.32,0.93    l0.57,7.31L995.12,439.98z"></path><path fill="#f4d1b3" d="M977.56,451.33v0.27c-1.64,32.84-8.74,90.33-37.18,128.54c-0.02,0-0.02,0-0.04,0.02   c-2.27,3.08-4.68,6-7.25,8.78c-49.48,53.5-124.37-7.35-124.37-7.35l4.38-23.93l8.34-45.61l48.81-2.02l3.29,2.32l14.74,10.38   l0.02,0.02c0,0,2.04-1.09,5.39-3.54c12.32-9.02,47.82-40.99,60.63-100.46c0.02-0.1,0.04-0.21,0.06-0.3   c0.04-0.13,0.08-0.3,0.11-0.53l15.19,5.37l8.19,2.89c0,0,0,0.15,0.02,0.46C977.96,428.73,978.21,437.96,977.56,451.33z"></path><path fill="#e0bea4" d="M828.72,565.2c0,0,33.09-6.5,52-47.56l-10.47-7.62l-48.32,44.57L828.72,565.2L828.72,565.2z"></path><path fill="#e0bea4" d="M940.35,580.16c-2.28,3.07-4.7,5.99-7.26,8.77c-49.48,53.5-124.37-7.35-124.37-7.35l4.37-23.93   c4.46-2.18,9.08-2.75,13.81-1.06C826.9,556.58,874.54,629.43,940.35,580.16z"></path><path fill="#4361f7" d="M873.91,897.53l-3.79,0.5h-79.31c-1.48-3.28-2.92-6.52-4.32-9.74c-0.58-1.31-1.14-2.61-1.7-3.9   c-0.14-0.3-0.27-0.59-0.39-0.89c-0.33-0.8-0.67-1.59-1.01-2.37c-0.67-1.59-1.34-3.15-2-4.71c-0.44-1.01-0.86-2.03-1.28-3.04   c-0.53-1.29-1.08-2.59-1.61-3.87c-0.06-0.14-0.12-0.3-0.17-0.44c-0.56-1.37-1.12-2.73-1.69-4.07c-0.3-0.75-0.59-1.5-0.89-2.23   c-1.48-3.68-2.9-7.26-4.26-10.7c-0.42-1.08-0.83-2.15-1.25-3.2c-1.42-3.67-2.76-7.18-4.01-10.5c-0.27-0.69-0.51-1.37-0.76-2.04   c-1.05-2.79-2.03-5.46-2.93-7.96c-1.83-4.99-3.37-9.33-4.6-12.89c-0.23-0.69-0.47-1.36-0.69-1.98c-0.02-0.02-0.02-0.05-0.03-0.06   c-0.22-0.64-0.42-1.26-0.62-1.84c-1.5-4.34-2.28-6.77-2.28-6.77l-0.76,6.62l-9.91,86.59h-83.93c-7.58-21.53-19.8-59.07-27.76-97.91   c0-0.06-0.02-0.12-0.03-0.19c-0.25-1.23-0.5-2.47-0.75-3.71c-0.55-2.78-1.03-5.52-1.45-8.22c-6.15-39.62,1.14-69.57,6.05-83.96   c2.09-6.15,3.76-9.46,3.76-9.46c0.64-0.62,1.28-1.25,1.92-1.87c4.82-4.54,9.92-8.64,15.26-12.33   c75.47-52.21,196.13-21.25,196.13-21.25C887.96,774.83,873.91,897.53,873.91,897.53z"></path><path fill="#3858ce" d="M835.87,670.03c0,0-44.55,38.6-135.48,34.59c-27.85-1.23-48.87-1.2-64.61-0.58c2.09-6.15,3.76-9.46,3.76-9.46   c5.38-5.3,11.12-10.02,17.18-14.2L835.87,670.03z"></path><path fill="#fbb040" d="M883.62,513.38c0,0,0,0-0.02,0.02c-0.23,0.34-4.26,6.21-11.47,13.68v0.02c-6.97,7.22-16.91,15.98-29.25,22.67   c-4.95,2.68-10.28,5.04-15.98,6.82c-2.32,0.75-4.7,1.39-7.15,1.92c0,0,21.73,59.18,33.09,100.64c0,0-25.81,20.66-67.95,30.44   c-0.03,0.02-0.06,0.02-0.11,0.03c-12.5,2.89-26.45,4.82-41.6,4.98c-16.73,0.17-30.86-0.22-42.81-0.76h-0.02   c-35.37-1.64-51.83-4.74-60.82,0.76l9.3-108.88l2.06-24.2c0,0-7.82,0.27-19.08-0.02c-12-0.28-27.9-1.17-42.39-3.64   c-5.16-0.86-10.17-1.93-14.74-3.26c0,0,0.7-7.3,2.84-18.22c4.24-21.63,14.17-57.43,35.61-78.67c9.52-9.42,20.42-16.55,31.33-21.95   c3.85-1.92,7.69-3.62,11.48-5.12c0.02,0,0.02,0,0.02,0c15.45-6.12,29.86-9.03,39.1-10.39c6.43-0.95,10.34-1.15,10.34-1.15   l63.02-4.52c0,0,4.31,0.95,10.84,2.76c14.43,3.99,39.72,12.11,53.53,23.15c5.09,4.07,10.42,9.39,15.67,15.4   c0,0,0.02,0.02,0.05,0.06c9.66,11.06,18.99,24.48,25.87,36.88C878.52,500.29,881.75,507.39,883.62,513.38z"></path><path fill="#f4d1b3" d="M999.89,399.18c-5.81,3.24-13.29,3.07-20.69,5.03c0,0,3.26,0.86,6.15,2.74c3.52,2.27,6.47,6.04,2.28,11.56   c-3.64,4.8-6.93,7.14-9.75,8.11c-2.38,0.86-4.44,0.7-6.02,0.21c-1.35-0.4-2.36-1.03-3.03-1.5c-2.27-1.66-14.53-6.59-14.53-6.59   s0.02-0.1,0.06-0.3c0.04-0.13,0.08-0.3,0.11-0.53c0.42-2,1.62-7.33,3.37-13.02c0.04-0.17,0.1-0.32,0.17-0.48   c1.9-4.8,11.04-6,11.04-6l0.04-0.02c0.91-0.15,15.71-2.84,32.59-4.11C1001.7,394.27,1005.53,396.04,999.89,399.18z"></path><path fill="#ffc880" d="M883.62 513.38c0 0-24.75 36.6-63.86 45.12l-6.44-18.8c42.46-15.9 61.06-46.87 61.06-46.87C878.52 500.29 881.75 507.39 883.62 513.38zM658.68 541.71c0 0 .61 21.35-1.91 37.3-.42 2.64-3.34 4.84-7.93 6.71l2.59-24.02c0 0-28.14 3.15-76.74-7.09 0 0 .7-7.3 2.84-18.22C582.5 537.59 620.41 546.42 658.68 541.71z"></path><path fill="#dd973a" d="M883.62 513.38c0 0 0 0-.02.02-.23.34-4.26 6.21-11.47 13.68 2.29-29.16-22.69-69.57-23.62-71.13 9.66 11.06 18.99 24.48 25.87 36.88C878.52 500.29 881.75 507.39 883.62 513.38zM852.85 659.14c0 0-25.81 20.66-67.95 30.44.7-.19 1.47-.37 2.28-.56 48.63-11.28 19.69-174.48 19.05-178.09 8.83 29.89 20.19 45.01 20.67 45.65-2.32.75-4.7 1.39-7.15 1.92C819.76 558.5 841.49 617.68 852.85 659.14zM682.84 671.35c0 0 .47 16.84 17.52 22.47-24.81-1.15-40.3-3.01-50.46-2.14h-.05c-4.31.39-7.65 1.26-10.31 2.9l1.84-21.47 7.46-87.41 2.06-24.2c0 0-7.82.27-19.08-.02l1.37-.45c0 0 31.24-14.31 38.73-66.69-1.75 13.64-8.38 73.75 6.91 121.83l71.32-49.01c-.47.75-15.67 18.54-27.2 50.51C712.36 647.09 694.87 665.83 682.84 671.35z" opacity=".53"></path><path fill="#f4d1b3" d="M756.1,561.52c-9.02,7.9-17.48,18.54-25.91,29.89c-0.02,0.02-0.02,0.04-0.02,0.04   c-2.42,3.26-4.82,6.57-7.25,9.88c-0.74,1.03-1.5,2.06-2.25,3.08c-6.99,9.54-14.11,19.04-21.61,27.32c-1.69,1.85-3.6,3.69-5.69,5.48   c0,0,0,0-0.02,0c-20.67,17.69-59.26,30.48-86.34,13.19c-0.1-0.04-0.19-0.11-0.29-0.17c-0.72-0.48-1.47-1.01-2.19-1.52   c-0.06-0.04-0.1-0.1-0.15-0.11c-0.15-0.1-0.29-0.19-0.44-0.3c-1.54-1.16-3.07-2.44-4.53-3.85c-1.75-1.68-3.37-3.45-4.85-5.33   c-8.72-11-13.25-25.24-15.52-38.86c-3.85-23.32-1.03-44.78-1.03-44.78c1.45,0.3,2.93,0.61,4.45,0.89   c8.38,1.62,17.53,3.01,27.34,3.98c13.02,1.28,30.56,1.58,42.93,1.31c2-0.04,3.85-0.1,5.52-0.15l-0.76,8.83v0.02l-0.72,8.62   c9.25-5.33,18.03-10.24,26.2-14.72c37.16-20.39,61.99-31.72,62.79-32.08c0,0,0,0,0.02-0.02l7.42,21.11l2.87,8.17L756.1,561.52z"></path><path fill="#ffc880" d="M768.42,414.57c0,0,4.31,0.95,10.84,2.76c-9.41,28.33-31.39,45.89-50.12,36.87   c-18.72-9.03-34.09-33.95-34.09-33.95c6.43-0.95,10.34-1.15,10.34-1.15L768.42,414.57z"></path><path fill="#f4d1b3" d="M768.42,414.56c-3.28,7.46-10.27,16.9-15.72,23.69c-4.95,6.16-13.7,7.79-20.47,3.75   c-1.03-0.62-2.05-1.27-3.07-1.96c-12.56-8.37-23.75-20.96-23.75-20.96c9.29-1.01,16.17-10.48,19.18-16.83   c5.06-10.66,2.56-21.27,2.56-21.27s0.19-0.52,0.51-1.39c2.54-6.49,13.51-32.26,18.38-2.62c0.58,3.53,1.28,6.73,2.08,9.62   c4.65,16.96,12.45,23.81,16.92,26.44C767.08,414.25,768.42,414.56,768.42,414.56z"></path><path fill="#3858ce" d="M809.74,898.03h-18.93c-1.48-3.28-2.92-6.52-4.32-9.74c-0.58-1.31-1.14-2.61-1.7-3.9   c-0.14-0.3-0.27-0.59-0.39-0.89c-0.34-0.8-0.69-1.58-1.01-2.37c-0.69-1.58-1.34-3.15-2-4.71c-0.44-1.01-0.86-2.03-1.28-3.04   c-0.55-1.29-1.08-2.59-1.61-3.87c-0.06-0.14-0.12-0.3-0.17-0.44c-0.58-1.37-1.14-2.73-1.69-4.07c-0.3-0.75-0.59-1.5-0.89-2.23   c-1.5-3.68-2.92-7.26-4.26-10.7c-0.42-1.08-0.83-2.15-1.25-3.2c-1.44-3.67-2.76-7.18-4.01-10.5c-0.27-0.69-0.51-1.37-0.76-2.04   c-1.06-2.81-2.03-5.46-2.93-7.96c-1.83-4.99-3.37-9.33-4.6-12.89c-0.23-0.69-0.47-1.36-0.69-1.98c-0.02-0.02-0.02-0.05-0.03-0.06   c-0.22-0.64-0.42-1.26-0.62-1.84c-1.5-4.34-2.28-6.77-2.28-6.77l-0.76,6.62l-1.36-14.96v-0.02l-0.16-1.73l1.69-5.88   c0.02-0.02,0.02-0.03,0.02-0.05l7.82-27.16C761.82,762.57,772.32,799.31,809.74,898.03z"></path><path fill="#8fa7ff" d="M765.07,740.6l-3.51,21.03l-7.24,43.19l-0.76,6.62l-9.91,86.59h-9.39c2.51-14.51,5.74-36.92,10.94-65.03   c2.62-14.18,4.95-26.26,7.01-36.53c0.53-2.68,1.05-5.24,1.54-7.68C761.51,750.79,764.82,741.3,765.07,740.6z"></path><path fill="#fff5e9" d="M644.46,435.75c-15.4,9.94-49.9,39.5-55,121.89c-0.02,0.08-0.02,0.14-0.03,0.22   c-5.16-0.86-10.17-1.93-14.74-3.26c0,0,0.7-7.3,2.84-18.22c4.24-21.63,14.17-57.43,35.61-78.67   C622.65,448.28,633.55,441.15,644.46,435.75z" opacity=".28"></path><path fill="#e0bea4" d="M693.34,637.22c-22.69,19.41-66.98,32.94-93.93,7.22c-11.95-11.41-17.72-28.23-20.36-44.19   C579.05,600.25,592.4,680.54,693.34,637.22z"></path><path fill="#f7e7da" d="M594.56 639.1c-8.72-10.98-13.26-25.23-15.51-38.85-3.85-23.31-1.03-44.76-1.03-44.76 1.45.3 6.86 1.55 8.37 1.83C585.71 562.14 574.95 612.53 594.56 639.1zM604.54 648.7c-.06-.04-.1-.07-.16-.11-.14-.09-.28-.19-.42-.3C604.15 648.44 604.34 648.56 604.54 648.7zM606.73 650.23c-.74-.48-1.47-1-2.2-1.53C605.34 649.24 606.08 649.75 606.73 650.23z"></path><path fill="#e0bea4" d="M748.11,386.59c0,0-7.69,11.89-23.53,15.67c5.06-10.66,2.56-21.28,2.56-21.28s0.19-0.51,0.51-1.39l15.2-3.64   L748.11,386.59z"></path><path fill="#f4d1b3" d="M746.96,339.59c0,0,0.32,6.42-11.64,8.17s-15.72,10.05-15.26,15.14c0,0,0.15-5.02-5.5-5.62   c-5.65-0.61-6.78,19.45,5.79,17.12c0,0,4.45,14.94,18.29,14.41s18.56-11.09,19.66-20.87C759.61,356.25,754.41,339.04,746.96,339.59   z"></path><ellipse cx="735.72" cy="361.51" rx="1.6" ry="2.16"></ellipse><ellipse cx="753.37" cy="361.06" rx="1.6" ry="2.16"></ellipse><path fill="none" stroke="#ef4136" stroke-linecap="round" stroke-miterlimit="10" d="M739.76,378.3c0,0,4.79,4.02,9.28,0"></path><path fill="none" stroke="#c1a18b" stroke-linecap="round" stroke-miterlimit="10" stroke-width=".75" d="M744.01,358.31c0,0,3.21,10.88,3.27,12.76c0.06,1.88-6.01,0.12-6.01,0.12"></path><circle cx="753.37" cy="360.72" r="7.21" fill="none" stroke="#fff" stroke-miterlimit="10"></circle><line x1="742.94" x2="746.16" y1="361.06" y2="361.06" fill="none" stroke="#fff" stroke-linecap="round" stroke-miterlimit="10"></line><path fill="#603913" d="M723.53,353.51c0,0-2.12,4.72,1.05,19.27c0,0-10.32-12.87-6.89-24.57c3.43-11.7,3.43-11.7,3.43-11.7   l10.03,2.01L723.53,353.51z"></path><path fill="none" stroke="#fff" stroke-linecap="round" stroke-miterlimit="10" d="M728.52,360.72c0,0-6.38-2.66-8.67-3.45c-9.86-3.39-12.93,0.5-12.93,0.5"></path><path fill="#fff5e9" d="M649.86,691.68c-4.31,0.39-7.65,1.26-10.31,2.9l1.84-21.47C641.39,673.12,640.81,691.62,649.86,691.68z" opacity=".28"></path><path fill="#8fa7ff" d="M631.18 796.22c.31 1.33.56 2.57.75 3.71C631.68 798.7 631.43 797.47 631.18 796.22zM629.73 788c-6.15-39.62 1.14-69.57 6.05-83.96 2.09-6.15 3.76-9.46 3.76-9.46.64-.62 1.28-1.25 1.92-1.87 3.9-.84 6.94-1.3 8.39-1.03C649.86 691.68 624.58 746.03 629.73 788z"></path><path fill="none" stroke="#294aa5" stroke-linecap="round" stroke-miterlimit="10" stroke-width="2" d="M664.28,706.96c0,0-1.83,25.58-28.5,29.59"></path><path fill="#e0bea4" d="M745.78,532.18c0,0,4.12-18.47,20.66-22.32c16.54-3.84,1.16,14.05,1.16,14.05S744.6,531.5,745.78,532.18z"></path><path fill="none" stroke="#294aa5" stroke-linecap="round" stroke-miterlimit="10" stroke-width="2" d="M679.3,892.19c-37.87-117.77-25.67-163.76-25.67-163.76"></path><path fill="#dbdbdb" d="M794.71,503.27l-3.03,60.48c-0.02,0.57-0.57,1.03-1.26,1.05l-9.35,0.17l-3.67,0.06l-12.62,0.17   c-0.69,0.02-1.24-0.42-1.29-0.97l-6.23-60.39c-0.06-0.61,0.51-1.14,1.22-1.14l34.95-0.49c0.27,0,0.53,0.06,0.74,0.17   c0.02,0.02,0.06,0.04,0.08,0.06C794.54,502.62,794.73,502.92,794.71,503.27z"></path><path fill="#eaeaea" d="M794.71,503.27l-3.03,60.48c-0.02,0.57-0.57,1.03-1.26,1.05l-9.35,0.17c-0.27-0.17-0.46-0.44-0.48-0.74   l-6.24-60.39c-0.08-0.61,0.49-1.14,1.24-1.14l18.66-0.27C794.54,502.62,794.73,502.92,794.71,503.27z"></path><path fill="#603c29" d="M794.7,493.39v5.66c0,0.7-0.56,1.26-1.25,1.26l-24.98,0.02h-10.14c-0.7,0-1.26-0.58-1.26-1.26v-5.66   c0-0.7,0.56-1.26,1.26-1.26h35.11C794.14,492.14,794.7,492.7,794.7,493.39z"></path><path fill="#996441" d="M797.79,500.32v2.84c0,0.69-0.56,1.25-1.26,1.25l-28.05,0.02h-13.23c-0.69,0-1.25-0.56-1.25-1.25v-2.84   c0-0.69,0.56-1.26,1.25-1.26h13.23l26.23-0.02h1.83C797.23,499.05,797.79,499.63,797.79,500.32z"></path><path d="M768.47,499.07v5.35h-13.23c-0.69,0-1.25-0.56-1.25-1.25v-2.84c0-0.69,0.56-1.26,1.25-1.26h1.83v-5.66   c0-0.7,0.56-1.26,1.26-1.26h10.14C768.47,492.14,768.47,495.48,768.47,499.07z" opacity=".22"></path><path fill="#f4d1b3" d="M788.82,553.31c-1.39,1.33-3.39,2.97-6.23,4.45c-5.39,2.84-13.76,5.1-26.52,3.69c-0.02,0-0.02,0-0.04,0   c-2.23-0.25-4.19-0.48-5.94-0.69c-13.67-1.69-13.94-2.47-13.94-2.47l9.59-26.1c0,0,0,0,0.02-0.02c0.34-0.57,7.1-11.25,20.41-15.44   c13.67-4.3,25.02,2.7,27.36,9.86C795.87,533.78,792.82,549.48,788.82,553.31z"></path><path fill="#f4d1b3" d="M780.15,516.06c0,0,14.11,1.65,16.56,6.09c2.98,5.39-3.2,6.96-8.02,6.96S780.15,516.06,780.15,516.06z"></path><path fill="#f4d1b3" d="M783.75,523.91c0,0,11.06,0.41,13.56,4.82c2.88,5.08-2.56,7.55-7.38,7.55S783.75,523.91,783.75,523.91z"></path><path fill="#f4d1b3" d="M781.33,529.91c0,0,9.84,2.7,13.52,6.21c3.68,3.51-0.12,11.28-4.96,11.28S781.33,529.91,781.33,529.91z"></path><path fill="none" stroke="#603913" stroke-miterlimit="10" stroke-width=".75" d="M706.6,322.46c0,0-21.77,37.33-71.86,41.59c-34.04,2.89-71.59,7.16-81.04,71.43s-43.72,51.72-57.31,72.47"></path><path fill="#e0bea4" d="M658.26,561.51l-0.76,8.84l0.2-2.36c-48.13-1.6-79.68-12.5-79.68-12.5c1.45,0.29,2.94,0.61,4.45,0.88   c8.38,1.63,17.52,3.02,27.34,3.98c13.03,1.27,30.55,1.57,42.92,1.31C654.73,561.64,656.58,561.57,658.26,561.51z"></path><path fill="none" stroke="#231f20" stroke-linecap="round" stroke-miterlimit="10" d="M656.77 579c0 0-16.31 11.02-22 23.58M888.27 522.72c0 0-16.41 15.06-18.48 31.87"></path><path fill="none" stroke="#603913" stroke-miterlimit="10" stroke-width=".75" d="M772.76,332.54c0,0,22.6,42.25,57.17,41.66s66.18-3.55,74.15,18.02c7.98,21.57,0.89,44.37,34.86,49.07"></path><path fill="none" stroke="#231f20" stroke-linecap="round" stroke-miterlimit="10" d="M796.09 527.33c0 0-6.99-3.04-17.63-2.82M794.84 536.12c0 0-7.57-3.94-17.05-1.35M792.18 546.8c0 0-6-3.39-15.01-.58"></path><path fill="none" stroke="#000" stroke-linecap="round" stroke-miterlimit="10" d="M658.43 561.16c0 0 4.48-5.3 7.37-23.87 2.95-18.95 4.24-27.95 4.24-27.95M819.76 558.5c0 0-11.2-23.26-13.53-47.57"></path><path fill="none" stroke="#fff" stroke-linecap="round" stroke-miterlimit="10" d="M760.91,409.95c0,0-3.34,15.46-20.35,21.47c0,0-13.63-1.13-23.09-18.88"></path><path fill="#4361f7" d="M742.69,435.33c0,1.27-1.03,2.3-2.3,2.3s-2.3-1.03-2.3-2.3s1.2-3.9,2.47-3.9S742.69,434.06,742.69,435.33z"></path><path fill="#e0bea4" d="M768.42,414.56c-3.28,7.46-10.27,16.9-15.72,23.69c-4.95,6.16-13.7,7.79-20.47,3.75   c-1.03-0.62-2.05-1.27-3.07-1.96c20.67,12.52,35.86-27.01,35.86-27.01h0.01C767.08,414.25,768.42,414.56,768.42,414.56z"></path><path fill="none" stroke="#000" stroke-linecap="round" stroke-miterlimit="10" d="M730.55 356.81c0 0 2.79-1.73 6.77-.92M749.98 356.81c0 0 2.79-1.73 6.77-.92"></path><circle cx="735.73" cy="360.72" r="7.21" fill="none" stroke="#fff" stroke-miterlimit="10"></circle><circle cx="716.69" cy="373.78" r="2.37" fill="#fff"></circle><path fill="#b5c2f4" d="M962.41 397.26c-.08.78-.38 1.18-.63 1.37-.32.15-.48-.17-.51-.23-.93-2.13-4.72-7.62-6.28-9.8-.02-.04-.04-.08-.08-.11 0 0 0-.02-.02-.02-.42-.61-.17-.97-.08-1.07.02-.02.04-.04.04-.04l.44-.23c0 0 .51-.23 1.29.82v.02C958.39 390.43 962.52 396.14 962.41 397.26zM995.12 439.98c.04.59-.61.97-1.09.65l-.67-.44-6.19-4.09c-.23-.15-.42-.34-.57-.57 2.34-5.64 7.54-4.82 7.54-4.82.19.29.29.61.32.93l.57 7.31L995.12 439.98z"></path><path fill="#231f20" d="M995.12,439.98c0.04,0.59-0.61,0.97-1.09,0.65l-0.67-0.44c0,0-0.23-1.29,1.68-1.24L995.12,439.98z"></path><line x1="1335.47" x2="1342.91" y1="779.7" y2="895.97" fill="none"></line><path fill="#fbb040" d="M1335.26,895.97h-128.12l-16.59-66.98l-1.31-5.31l-3.3,72.29h-122.58c6.82-46.08,13.85-116.13,11.42-200.09   l46.36-25.84l12.75-7.1l126.13,12.44l31.45,3.1l22.92,2.26c0,0,1.22,8.66,3.08,23.15c1.64,12.72,3.77,29.93,6,49.71   c0.01,0.07,0.03,0.16,0.03,0.23c0.26,2.37,0.54,4.79,0.81,7.23c0.32,2.92,0.64,5.91,0.97,8.92c0,0,0,0.07,0.01,0.23   C1329.47,809.2,1333.63,855.24,1335.26,895.97z"></path><path fill="#dd973a" d="M1121.14,670.03l-12.15,35.9c0,0-28.59,42.96-29.38,121.52c0,0-3.74,47.93-1.41,68.52h-14.84   c6.82-46.08,13.85-116.13,11.42-200.09L1121.14,670.03z" opacity=".53"></path><path fill="#dd973a" d="M1317.47,703.87c-16.15,6.29-43.65,13.74-85.39,15.31c-74.84,2.79-142.33-15.93-142.33-15.93l170.26-27.88   l54.36,5.35C1314.38,680.72,1315.61,689.38,1317.47,703.87z" opacity=".53"></path><path fill="#fff5e9" d="M1317.47,703.87c1.64,12.72,4.56,37.21,6,49.71c-5.72-49.94-32-61.44-32-61.44v-13.68l22.92,2.26   C1314.38,680.72,1315.61,689.38,1317.47,703.87z" opacity=".28"></path><path fill="#f4d1b3" d="M1111.48,624.44c-1.24,15.99-15.42,26.98-52.88,26.25c-43.51-0.84-70.22-25.7-86.57-54   c-22.09-38.21-25.23-82.68-25.23-82.68l91.7,0.77C1038.51,514.78,1114.51,584.92,1111.48,624.44z"></path><path fill="#e0bea4" d="M1111.48,624.44c-1.24,15.99-15.42,26.98-52.88,26.25c-43.51-0.84-70.22-25.7-86.57-54   c14.74,15.93,34.6,32.11,52.75,29.41c34.52-5.14,26.76-40.19,26.76-40.19l27.12-12.66L1111.48,624.44z"></path><path fill="#4361f7" d="M1355.16,520.82l-4.44,3.06l-6.77,4.67l-9.05,6.23l-15.72,10.83l-3.54,2.43l-29.34-2.43l-7.38-0.61   c0,0,0.06,0.2,0.16,0.61c0.39,1.38,1.41,5.06,2.9,10.39c0,0.03,0.01,0.04,0.01,0.07c0.1,0.38,0.22,0.77,0.33,1.18   c1.59,5.76,3.64,13.24,5.95,21.73c1.02,3.71,2.08,7.61,3.17,11.64c1.88,6.96,3.86,14.3,5.84,21.72c1.02,3.87,2.05,7.77,3.08,11.64   c1.95,7.42,3.86,14.77,5.63,21.73c1.02,4.03,2.01,7.93,2.92,11.64c2.1,8.47,3.86,15.93,5.08,21.71c0.13,0.58,0.25,1.15,0.36,1.69   c0,0-6.66,4.48-19.43,9.95c-1.12,0.48-2.28,0.96-3.49,1.46c-20.75,8.45-55.11,18.48-101.07,18.29c-35.01-0.13-62.15-2.24-81.4-4.51   c-23.41-2.76-35.14-5.78-35.14-5.78l-0.61-9.46l-0.77-11.64l-1.41-21.71l-0.76-11.64l-1.43-21.73l-0.76-11.64l-1.43-21.72   l-0.76-11.64l-1.35-20.69l-28.24-1.03l-19.48-0.71l-18.16-0.67l-15.35-0.57c-0.6-10.91,0.06-23.02,2.01-35.49   c3.32-21.2,10.42-43.44,21.61-62.66c2.34-4.03,4.86-7.92,7.57-11.64c5.95-8.19,12.79-15.57,20.55-21.71   c3.58-2.85,7.36-5.43,11.35-7.71c2.44-1.4,4.93-2.72,7.49-3.93c0.04-0.03,0.1-0.04,0.15-0.07l0.01-0.01   c19.24-9.21,40.82-13.61,54.51-15.61c8.47-1.24,13.91-1.57,13.91-1.57l71.62-3.71c0,0,7.01-0.28,17.9,0.26   c0,0,24.91-0.45,51.42,6.87c0,0,0.01,0,0.04,0c0.01,0.01,0.03,0.01,0.06,0.01c0.79,0.22,1.57,0.45,2.36,0.68   c10.3,3.01,20.74,7.23,29.96,13.15c5.18,3.32,9.97,7.16,14.14,11.64c0.19,0.19,0.36,0.39,0.55,0.6   c5.01,5.51,9.89,13.05,14.38,21.11c2.12,3.81,4.15,7.76,6.05,11.64c3.87,7.9,7.19,15.6,9.71,21.73c2.23,5.46,3.81,9.66,4.54,11.64   c0.31,0.81,0.47,1.25,0.47,1.25c3.3,9.5,5.49,16.04,6.9,20.47C1354.73,518.9,1355.16,520.82,1355.16,520.82z"></path><path fill="#fff" d="M1212.02,391.43c-11.27,16.2-21.02,38-56.72,31.91c-35.72-6.08-49.69-26.56-49.69-26.56   c8.47-1.24,16.89-1.91,16.89-1.91l71.62-3.71C1194.12,391.17,1201.13,390.89,1212.02,391.43z"></path><path fill="#f4d1b3" d="M1194.12,391.17c-5.28,9.08-11.54,14.49-18.12,17.36c-0.03,0.01-0.04,0.01-0.07,0.03   c-24.48,10.65-53.43-13.68-53.43-13.68c1.62-0.44,3.14-0.96,4.55-1.59l0.03-0.01c4.23-1.86,7.55-4.53,10.13-7.51h0.01   c7.94-9.18,9.07-21.45,9.2-23.4c0.01-0.16,0.01-0.26,0.01-0.26s18.89-34.46,19.34-6.1c0.04,2.34,2.31,1.99,2.71,4.06   C1172.73,382.89,1194.12,391.17,1194.12,391.17z"></path><path fill="#e0bea4" d="M1169.36,361.53c0,0-0.22,1.3-0.22,1.32c-0.26,1.1-9.29,26.44-31.92,22.92c7.95-9.18,9.07-21.45,9.2-23.4   l7.9-1.42l13.89,1L1169.36,361.53z"></path><path fill="#f4d1b3" d="M1167.12,318.77c4.39,8.06,8.95,0.96,8.95,0.96l-1.14,10.68c7.12-6.54,9.33,0.12,9.39,7.72   s-8.65,9.88-8.65,9.88c0.31,5.29-6.94,26.7-28.58,18.84s-13.49-45.82-13.49-45.82c7.01,5.42,9.15-3.69,9.15-3.69   s4.23,6.88,12.64,7.34S1167.12,318.77,1167.12,318.77z"></path><path fill="none" stroke="#000" stroke-miterlimit="10" stroke-width=".75" d="M1145.97 333.73c0 5.81-5.23 10.36-11.21 9.27-3.59-.66-6.55-3.48-7.4-7.03-.29-1.23-.34-2.43-.17-3.57.24-1.67 1.65-2.92 3.34-2.92h12.83c1.03 0 1.96.66 2.25 1.65C1145.84 331.96 1145.97 332.83 1145.97 333.73zM1169.08 336.01c-.87 3.54-3.82 6.35-7.41 6.99-5.97 1.07-11.17-3.48-11.17-9.28 0-.63.06-1.24.18-1.83.28-1.4 1.49-2.42 2.91-2.42h12.67c1.38 0 2.6.94 2.89 2.29C1169.44 333.11 1169.44 334.54 1169.08 336.01z"></path><circle cx="1138" cy="336.27" r="2.13" fill="#231f20"></circle><circle cx="1159.93" cy="336.27" r="2.13" fill="#231f20"></circle><line x1="1145.97" x2="1150.5" y1="333.73" y2="333.73" fill="none" stroke="#000" stroke-miterlimit="10" stroke-width=".75"></line><path fill="none" stroke="#000" stroke-linecap="round" stroke-miterlimit="10" stroke-width=".75" d="M1169.36 333.73c0 0 8.44-8.64 14.96-5.63M1134.38 331.79c0 0 1.64-1.62 7.03-.26M1157.23 331.76c0 0 1.67-1.59 7.04-.13M1148.88 331.76c0 0-4.14 11.74-4.49 13.05-.35 1.3 1.77 3.07 5.12 3.07M1143.66 355.3c3.18 2.65 8.83 4.33 12.54 0M1174.14 341.35c0 0 .53-3.25 3.58-2.95"></path><path fill="none" stroke="#b77e34" stroke-linecap="round" stroke-miterlimit="10" stroke-width="2" d="M1274.63,710.44c0,0,6.62,42.72,42.84,41.48"></path><path fill="#fff5e9" d="M1325.28 769.97c-.29-2.2-.57-4.67-.83-7.46-.04-.49-.09-.97-.15-1.46C1324.63 763.97 1324.95 766.95 1325.28 769.97zM1320.48 895.97c13.2-14.59 5.25-120.19 4.82-125.77 4.18 39 8.34 85.04 9.97 125.77H1320.48z" opacity=".28"></path><path fill="#dd973a" d="M1190.55,828.99l-1.31-5.31l-3.3,72.29h-41.17c39.91-36.8,32.42-119.1,32.42-119.1l12.48,31.81   L1190.55,828.99z" opacity=".53"></path><polygon fill="#f7c684" points="1231.15 895.97 1207.14 895.97 1172.69 758.94"></polygon><path fill="#e0bea4" d="M1175.93,408.56c-24.48,10.65-53.43-13.68-53.43-13.68c1.62-0.44,3.14-0.96,4.55-1.59l0.03-0.01   C1127.08,393.28,1153.45,416.46,1175.93,408.56z"></path><g opacity=".79"><path fill="#fff" d="M1310 423.79h-274.93c3.58-2.85 7.36-5.43 11.35-7.71 2.44-1.4 4.93-2.72 7.49-3.93h241.94C1301.04 415.47 1305.83 419.31 1310 423.79zM1330.99 457.14h-324.03c2.34-4.03 4.86-7.92 7.57-11.64h310.41C1327.06 449.32 1329.08 453.26 1330.99 457.14zM1345.23 490.51H998.69v-11.64h342C1342.92 484.33 1344.5 488.53 1345.23 490.51zM1355.16 520.82l-4.44 3.06H998.69v-11.64h353.9C1354.73 518.9 1355.16 520.82 1355.16 520.82zM1282.01 556.06c.1.38.22.77.33 1.18H998.69V545.6h280.4c.39 1.38 1.41 5.06 2.9 10.39C1281.99 556.02 1282.01 556.03 1282.01 556.06z"></path><polygon fill="#fff" points="1319.19 545.6 1315.65 548.03 1286.31 545.6"></polygon><path fill="#fff" d="M1291.46 590.61h-224.77l-.76-11.64h222.36C1289.31 582.68 1290.37 586.58 1291.46 590.61zM1300.38 623.97h-231.51l-.76-11.64h229.18C1298.32 616.2 1299.35 620.1 1300.38 623.97zM1308.94 657.34h-237.88l-.76-11.64h235.72C1307.03 649.73 1308.02 653.63 1308.94 657.34zM1314.38 680.74c0 0-6.66 4.48-19.43 9.95h-221.72l-.77-11.64h241.55C1314.15 679.63 1314.27 680.2 1314.38 680.74z"></path></g><path fill="#869def" d="M1271.05,545.56l-4.59-24.43c0,0,53.55,0,81.1-23.95c5.94,17.57,7.6,23.64,7.6,23.64l-39.51,27.21   l-36.72-3.05L1271.05,545.56z"></path><path fill="#2b3990" d="M1314.38 680.74c0 0-7.89 5.3-22.92 11.41-6.27-9.09-19.02-17.52-42.55-23.17-80.44-19.34-119.51-76.92-119.51-76.92s80.85 28.27 113.28 6.45c31.66-21.32 16.94-108.01 16.24-112.07l12.12 59.14 10.96 10.49C1289.57 583.4 1308.84 653.89 1314.38 680.74zM1145.41 709.08c-23.41-2.76-71.56-8.93-71.56-8.93l-9.27-141.87-47.73-1.75-4.9-59.34 66.69-4.7c0 0 19.06 4.99 17.81 89.88C1095.21 667.26 1145.41 709.08 1145.41 709.08z" opacity=".35"></path><path fill="#2b3990" d="M1031.9,474.13l1.88,26.47l-48.43,19.21c6.26-39.93,25.92-83.58,61.07-103.72c2.49-1.43,5.03-2.76,7.64-4   C1023.88,441.43,1031.9,474.13,1031.9,474.13z" opacity=".35"></path><path fill="#262262" d="M930.44,516.54l-9.51-36.89c-0.96-3.74,2.13-7.28,6.15-7.1l11.25,0.5l3.56,0.16l4.93,0.22l10.57,0.47   c0.13,0.02,0.21,0.02,0.21,0.02l5.18,0.23c0,0,0.02,0,0.07,0c0.03,0.02,0.08,0.02,0.15,0.02l140.91-0.04   c2.84,0.13,5.19,2.11,5.67,4.75l10.44,57.97c0.08,0.39,0.12,0.61,0.12,0.61l8.62,47.89c0.64,3.61-2.39,6.88-6.25,6.71l-170.92-4.74   c-2.67-0.13-4.95-1.89-5.59-4.38l-3.56-13.79c-0.1-0.36-0.18-0.7-0.26-1.06l-1.86-7.22L930.44,516.54z"></path><path fill="#449" d="M1120 536.85c-1.15-5.97-10.72-53.81-22.66-56.02-12.42-2.28-128.58-6.16-134.36-6.66l140.91-.04c2.84.13 5.19 2.11 5.67 4.75L1120 536.85zM930.44 516.54l-9.51-36.89c-.96-3.74 2.13-7.28 6.15-7.1l11.25.5 3.56.16 4.93.22c-7.91.02-17.15 1.02-16.22 5.69 1.57 7.99.18 44.28 11.57 88.97l-1.86-7.22L930.44 516.54z"></path><path fill="#f4d1b3" d="M1145.42,586.17c0,0-2.19,1.71-13.52,0.4c-2.63-0.32-5.75-0.8-9.46-1.48c-9.16-1.73-17.19-4.3-23.87-8.13   c-0.06-0.04-0.11-0.06-0.15-0.08c-7.63-4.34-13.5-10.28-17.25-18.37c-7.08-15.23,5.79-37.77,14.03-25.13   c8.24,12.62,18.03,15.19,18.03,15.19c-0.82-4.93-0.93-17.78,4.17-13.31c5.08,4.49,7.5,22.62,7.5,22.62l0.02,0.02L1145.42,586.17z"></path><path fill="#f4d1b3" d="M1358.85,607.02c-7.71,25.87-27.99,46.68-74.48,43.31c-5.41-0.4-10.66-0.89-15.78-1.5h-0.15   c-5.81-0.69-11.42-1.5-16.85-2.42c-0.17-0.04-0.32-0.06-0.49-0.1c-2.86-0.49-5.67-1.01-8.41-1.56c-0.63-0.13-1.24-0.25-1.85-0.38   c-17.44-3.56-32.78-8.26-46.15-13.46c-2.42-0.93-4.78-1.9-7.08-2.86c-5.77-2.44-11.12-4.95-16.07-7.48l-0.02-0.02   c-0.8-0.4-1.58-0.82-2.36-1.24h-0.02c-2.49-1.31-4.89-2.63-7.16-3.92c-27.17-15.57-39.54-30.31-39.54-30.31l0.61-6.85l1.83-20.35   c0,0,0,0,0.02,0l0.02,0.02c0.91,0.36,15.86,6.21,35.92,12.34c0,0,0,0,0.02,0c27.89,8.49,65.72,17.48,89.57,12.81h0.02   c13.86-2.72,23.02-10.05,22.71-24.77c-0.06-3.75-0.74-7.96-2.11-12.7c0,0,7.81-0.32,20.37-2.36c1.56-0.25,3.2-0.51,4.91-0.82   c4.85-0.88,10.28-1.98,16.14-3.37c5.14-1.24,10.57-3.1,15.74-5.16c5.31-2.11,10.38-4.44,14.6-6.51c7.04-3.46,11.82-6.24,11.82-6.24   s0.67,2.06,1.6,5.65C1359.87,540.59,1367.74,577.16,1358.85,607.02z"></path><path fill="#f7e7da" d="M1358.84,607.02c-7.7,25.86-27.97,46.68-74.46,43.3c-5.41-0.39-10.67-0.9-15.79-1.5c-0.04,0-0.1,0-0.15-0.01   c-5.81-0.68-11.42-1.5-16.85-2.42c132.03,22.27,91.22-119.04,91.22-119.04l0,0c5.31-2.11-4.23,2.08,0,0   c7.04-3.45,11.83-6.23,11.83-6.23s0.65,2.05,1.6,5.65C1359.87,540.6,1367.73,577.16,1358.84,607.02z" opacity=".61"></path><ellipse cx="1015.65" cy="528.17" fill="#fff" rx="8.74" ry="10.33" transform="rotate(-23.504 1015.727 528.196)"></ellipse><path fill="#e0bea4" d="M1242.67,592.06c-41.59-5.03-80.9-21.43-81.82-21.83c27.89,8.5,65.73,17.48,89.58,12.81h0.01   c13.87-2.72,23.02-10.04,22.71-24.77C1273.16,558.27,1284.77,597.16,1242.67,592.06z"></path><path fill="#fff" d="M1355.16,520.82l-11.2,7.73l-15.79,5.49c0,0,14.53-27.42-6.9-80.84c-22.76-56.75-47.43-51.56-55.37-54.2   c16.36,4.79,33.05,12.62,44.66,25.39c18.26,20.11,35.14,67.37,35.14,67.37C1353.98,515.49,1355.16,520.82,1355.16,520.82z" opacity=".42"></path><path fill="none" stroke="#000" stroke-linecap="round" stroke-miterlimit="10" d="M1084.05 534.54c0 0 5.61 11.11 14.27 14.15M1080.55 543.09c0 0 5.61 11.11 14.27 14.15M1082.77 559.45c0 0 4.68 6.2 13.91 8.89"></path><rect width="961.74" height="103.5" x="491.27" y="836.42" fill="#fff"></rect><path fill="#d6ac85" d="M458.88,965.35l135.66-96.89c0.67-0.48,1.48-0.73,2.3-0.73h150.23c2.92,0,4.85,3.04,3.61,5.69l-84.28,96.89     c-0.66,1.4-2.06,2.29-3.61,2.29H461.18C457.29,972.6,455.7,967.59,458.88,965.35z"></path><path fill="#f7c797" d="M458.88,962.9l135.66-96.89c0.67-0.48,1.48-0.73,2.3-0.73h150.23c2.92,0,4.85,3.04,3.61,5.69l-84.28,96.89     c-0.66,1.4-2.06,2.29-3.61,2.29H461.18C457.29,970.15,455.7,965.15,458.88,962.9z"></path><polygon fill="#ccc" points="499.61 944.48 492.06 950.35 658.32 951.27 741.53 865.28 604.15 865.28"></polygon><path fill="#e0e0e0" d="M738.77,865.28l-82.39,83.23l-161.57-0.4l84.81-64.25c0,0,0.02-0.02,0.06-0.06l3.29-2.49     c0.04-0.04,0.08-0.06,0.11-0.08l21.06-15.95H738.77z"></path><path fill="#fff" d="M625.25,889.68c-24.85-14.42-50.18-1.37-61.9,6.58l40.9-30.99h59.05     C622.29,865.28,625.25,889.68,625.25,889.68z" opacity=".36"></path><path fill="#414042" d="M545.29,938.34c-1.67,0.16-23.09,2.52-23.31,15.32c-0.02,1.22,1.02,2.2,2.24,2.2c13.49,0,88.6,0,101.35,0     c1.03,0,1.91-0.71,2.16-1.71c0.67-2.67,2.69-7.92,8.59-11.74c1.85-1.2,0.97-4.08-1.23-4.08c-26.79,0-86.84,0-89.59,0     C545.42,938.33,545.36,938.33,545.29,938.34z M619.9,950.85l-86.67-0.25c-1.9-0.01-2.93-2.24-1.7-3.69     c4.44-5.2,14.51-6.25,15.61-6.35c0.07,0,0.13-0.01,0.2-0.01h76.3c1.98,0,2.93,2.34,1.59,3.79c-1.72,1.86-2.74,3.87-3.27,5.15     C621.61,950.32,620.8,950.85,619.9,950.85z"></path><line x1="657.52" x2="528.94" y1="930.77" y2="930.77" fill="none" stroke="#fff" stroke-linecap="round" stroke-miterlimit="10"></line><line x1="543.57" x2="667.63" y1="921.22" y2="921.22" fill="none" stroke="#fff" stroke-linecap="round" stroke-miterlimit="10"></line><line x1="556.41" x2="676.23" y1="910.92" y2="910.92" fill="none" stroke="#fff" stroke-linecap="round" stroke-miterlimit="10"></line><line x1="571.49" x2="685.13" y1="900.65" y2="900.65" fill="none" stroke="#fff" stroke-linecap="round" stroke-miterlimit="10"></line><path fill="#4361f7" d="M729.18,951.71l61.8-71.42c0.34-0.69,1.06-1.11,1.83-1.06l47.94-1.77c3.06,0.18,3.25,3.55,2.73,4.77     l-56.77,72.11c-2.01,2.5-3.26,2.64-4.85,2.54l-49.89-0.05C728.73,956.48,728.04,954.03,729.18,951.71z"></path><path fill="#8fa7ff" d="M729.18,951.71l59.3-71.62c1.31-1.76,1.42-3.08,5.27-2.85l47.01,0.21c1.32,0.08,2.16,1.44,1.64,2.66     l-57.27,72.73c-1.38,1.85-2.4,1.96-4.25,1.93l-50.1-0.31C729.15,954.39,728.57,952.93,729.18,951.71z"></path><path fill="#efefef" d="M732.41,950.11l57.36-69.05c1.82-2.51,3.71-2.11,4.47-2.07l43.15,0.3c1.31,0.08,2.15,1.43,1.63,2.64     l-55.85,69.73c-0.62,0.93-1.5,1.23-3.18,1.07L734,952.85C732.64,952.76,731.81,951.33,732.41,950.11z"></path><path fill="#8fa7ff" d="M767.08,954.06l0.46-1.22c0.58-1.15,0.42-2.13-1.6-2.13l-14.25,0.02c-1.71-0.1-3.39,0.48-4.68,1.62     l-1.92,1.7L767.08,954.06z"></path><path fill="#cfcfd3" d="M790.58 933.88l-38.94-.14c-.22 0-.44.11-.58.29l-6.71 8.03c-.41.52-.06 1.31.58 1.31l39.42.08c.23 0 .45-.11.6-.31l6.23-7.97C791.56 934.64 791.21 933.88 790.58 933.88zM803.99 918.6l-40.28.39c-.23 0-.44.11-.58.29l-7.88 9.72c-.41.52-.06 1.31.58 1.31h39.77c.24 0 .46-.11.6-.31l8.39-10.11C804.97 919.36 804.62 918.6 803.99 918.6zM813.21 907.48l-40.66.39c-.23 0-.44.11-.59.29l-4.7 5.89c-.42.52-.06 1.31.59 1.31l40.42-.65c.24 0 .46-.11.61-.31l4.94-5.62C814.2 908.24 813.85 907.48 813.21 907.48z"></path><line x1="800.87" x2="827.48" y1="882.1" y2="881.84" fill="none" stroke="#cfcfd3" stroke-linecap="round" stroke-miterlimit="10" stroke-width=".5"></line><path fill="#fbb040" d="M1438.01,951.77l-69.42-71.42c-0.34-0.69-1.06-1.11-1.83-1.06l-47.94-1.77c-3.06,0.18-3.25,3.55-2.73,4.77     l64.88,72.37c1.43,2.46,2.77,2.38,4.35,2.28l50.34-0.11C1438.92,956.48,1439.15,954.09,1438.01,951.77z"></path><path fill="#f7c684" d="M1438.01,951.77l-65.9-71.64c-2.09-1.96-2.43-3.06-6.28-2.83l-47.01,0.21c-1.32,0.08-2.16,1.44-1.64,2.66     l64.88,72.73c1.38,1.85,2.4,1.96,4.25,1.93l50.1-0.31C1438.05,954.45,1438.62,953,1438.01,951.77z"></path><path fill="#efefef" d="M1434.78,950.18l-64.27-68.51c-2.75-2.91-4.42-2.65-5.18-2.6l-43.15,0.3c-1.31,0.08-2.15,1.43-1.63,2.64     l63.46,69.73c0.62,0.93,1.5,1.23,3.18,1.07l46.01,0.12C1434.55,952.83,1435.38,951.39,1434.78,950.18z"></path><path fill="#f7c684" d="M1400.46,955.04l-0.8-2.13c-0.58-1.15-0.42-2.13,1.6-2.13l14.25,0.02c1.71-0.1,3.39,0.48,4.68,1.62     l1.92,1.7L1400.46,955.04z"></path><path fill="#cfcfd3" d="M1374.7 933.95l38.94-.14c.22 0 .44.11.58.29l8.08 7.82c.41.52.06 1.31-.58 1.31l-38.88.29c-.23 0-.45-.11-.6-.31l-8.14-7.97C1373.72 934.71 1374.08 933.95 1374.7 933.95zM1361.3 918.66l38.59.28c.23 0 .44.11.58.29l9.57 9.82c.41.52.06 1.31-.58 1.31l-38.64.16c-.24 0-.46-.11-.6-.31l-9.52-10.26C1360.32 919.42 1360.67 918.66 1361.3 918.66zM1352.08 907.54l36.92.23c.23 0 .44.11.59.29l5.33 5.8c.42.52.06 1.31-.59 1.31l-37.31-.42c-.24 0-.46-.11-.61-.31l-4.94-5.62C1351.08 908.3 1351.44 907.54 1352.08 907.54z"></path><line x1="1358.7" x2="1332.1" y1="882.17" y2="881.9" fill="none" stroke="#cfcfd3" stroke-linecap="round" stroke-miterlimit="10" stroke-width=".5"></line><path fill="#4361f7" d="M1067.06,973.2l262.82-0.02c7.81,0.02,7.33-10.8,5.8-12.83l-88.35-81.09c-0.58-0.77-1.49-1.23-2.46-1.23    l-208.4-7.21c-7.63,0.93-7.12,6.23-5.44,12.32l33.3,88.39C1064.86,972.56,1065.91,973.2,1067.06,973.2z"></path><path fill="#8fa7ff" d="M1070.4,965.31l262.82-0.02c2.54,0,3.99-2.91,2.46-4.94l-82.08-87.74c-2.49-3.88-7.6-7.81-14.16-7.42    l-204.24-0.15c-2.31,0-3.8,2.45-2.74,4.5l35.2,94.1C1068.19,964.66,1069.25,965.31,1070.4,965.31z"></path><ellipse cx="1168.83" cy="911.13" fill="#fff" rx="8.2" ry="9.23" transform="rotate(-15.05 1168.76 911.188)"></ellipse><line x1="451.98" x2="1486.81" y1="836.41" y2="836.41" fill="none" stroke="#000" stroke-linecap="round" stroke-miterlimit="10" stroke-width="2"></line><polyline fill="none" stroke="#bcbec0" stroke-linecap="round" stroke-linejoin="round" stroke-miterlimit="10" stroke-width="3" points="937.23 850.85 942.49 787.06 975.51 774.97"></polyline><path fill="#e0e0e0" d="M920.07,903.09l5.54-26.65c0.7-0.45,2.51-3.45,5.49-3.45l37.53,0.35c4.5,0,6.05,6,2.11,8.17l-26.6,29     c-0.62,0.34-1.36,0.28-2.08,0.3l-19.55,0.3C918.11,911.18,916.38,905.46,920.07,903.09z"></path><path fill="#f7c684" d="M949.13,824.67l-4.24,84.65c-0.03,0.8-0.8,1.44-1.76,1.47l-13.08,0.24l-5.14,0.08l-17.67,0.24      c-0.96,0.03-1.73-0.59-1.81-1.36l-8.71-84.52c-0.08-0.85,0.72-1.6,1.71-1.6l48.92-0.69c0.37,0,0.75,0.08,1.04,0.24      c0.03,0.03,0.08,0.05,0.11,0.08C948.89,823.77,949.15,824.19,949.13,824.67z"></path><path fill="#fbb040" d="M949.13,824.67l-4.24,84.65c-0.03,0.8-0.8,1.44-1.76,1.47l-16.98,0.24c-0.37-0.24-0.64-0.61-0.67-1.04      l-4.84-84.52c-0.11-0.85,0.69-1.6,1.73-1.6l26.11-0.37C948.89,823.77,949.15,824.19,949.13,824.67z"></path><path fill="#603c29" d="M949.11,810.85v7.93c0,0.98-0.79,1.77-1.75,1.77l-34.96,0.02h-14.19c-0.98,0-1.77-0.81-1.77-1.77v-7.93      c0-0.98,0.79-1.77,1.77-1.77h49.13C948.33,809.1,949.11,809.89,949.11,810.85z"></path><path fill="#996441" d="M953.44,820.55v3.97c0,0.96-0.79,1.75-1.77,1.75l-39.26,0.02h-18.52c-0.96,0-1.75-0.79-1.75-1.75v-3.97      c0-0.96,0.79-1.77,1.75-1.77h18.52l36.71-0.02h2.55C952.65,818.78,953.44,819.58,953.44,820.55z"></path><path d="M912.4,818.8v7.49h-18.52c-0.96,0-1.75-0.79-1.75-1.75v-3.97c0-0.96,0.79-1.77,1.75-1.77h2.55v-7.93      c0-0.98,0.79-1.77,1.77-1.77h14.19C912.4,809.1,912.41,813.78,912.4,818.8z" opacity=".22"></path><path fill="#754c29" d="M562.64 486.89c-11 10.7-23.23 28.39-1.87 74.15 0 .02.02.02.02.04C537.34 544.78 538.29 504.59 562.64 486.89zM570.33 479.62c1.28-1.66 2.38-3.39 3.35-5.22C573.18 476.19 571.99 477.86 570.33 479.62zM600.64 394.88c23.17-22.79 65.05-17.42 82.07-34.1-16.11 25.91-34.8 31.55-68.19 33.7-11.27.72-19.15 6.82-24.75 15.4C592.37 404.63 595.86 399.56 600.64 394.88zM735.63 316.44c-1.75-.27-28.71-3.92-46.01 31.68C698.97 317.99 717.7 310.07 735.63 316.44z" opacity=".99"></path><path fill="#754c29" d="M874.32 431.85c-9.73-27.05-35.47-34.32-61.32-45.8-28.25-12.56-35.54-48.51-35.75-49.52 13.52 18.35 18.92 42.36 60.62 48.24C869.68 389.28 870.32 412.76 874.32 431.85zM885.97 498.73c6.13-12.55-4.19-32.21-9.08-57.44 1.71 4.65 4.13 8.62 7.98 11.5C904.57 467.47 902.15 484.93 885.97 498.73z"></path><path fill="#a97c50" d="M1200.19,317.15c2.42-15.17-17.91-14.47-17.91-14.47s1.64-6.11-4.55-9.69c-6.21-3.56-12.47,1.94-12.47,1.94   c-0.91-7.46-4.99-10.13-6.49-10.89c3.86,1.52,5.48,4.34,5.48,4.34s5.41-5.94,13.21-0.63c7.79,5.31,5.35,12.64,5.35,12.64   s11.77-2.63,16.39,7.88C1200.74,311.8,1200.8,314.77,1200.19,317.15z"></path><path fill="#e5c2a8" d="M987.63 418.5c-3.64 4.8-6.93 7.14-9.75 8.11.08 2.11.32 11.35-.32 24.71.46-11.04-3.18-19.8-5.69-24.5-1.01-1.87-1.83-3.08-2.19-3.56-.1-.15-.15-.23-.15-.23s6.74 1.83 14.7-3.98c7.96-5.83 1.12-12.11 1.12-12.11C988.87 409.21 991.82 412.98 987.63 418.5zM1161.98 615.39c-27.17-15.57-39.54-30.31-39.54-30.31-9.16-1.73-17.19-4.3-23.87-8.13 2.04.8 16.37 6.28 24.48 1.28.65-.4 1.26-.86 1.81-1.39 0 0 2.61 4.04 7.04 9.73C1138.62 595.15 1149.53 607.51 1161.98 615.39zM1171.52 620.55c-.8-.4-1.58-.82-2.36-1.24C1170.07 619.75 1170.85 620.15 1171.52 620.55z"></path><path fill="#e0bea4" d="M720.67 604.41c.21-.7.91-1.71 2.25-3.08C722.17 602.35 721.41 603.38 720.67 604.41zM756.08 561.46l.02.06c-9.02 7.9-17.48 18.54-25.91 29.89 4.68-8.57 14.59-19.86 14.59-19.86-16.29-6.04-15.62-19.99-15.62-19.99 2.74 8.8 6.68 16.33 13.86 15.47 2.44-.29 6.43-4.09 7.08-6.26 1.26-4.21.06-10.05.06-10.05.99.95 2 1.81 3.05 2.57 12.74 9.25 29.39 4.47 29.39 4.47C777.21 560.6 768.83 562.87 756.08 561.46z"></path><g><path fill="#6b8af9" d="M747.16,572.57c-3.78,0-10.15-1.27-16.45-9.52c-6.96-9.12-6.83-17.09-5.53-22.13    c0.75-2.92,4.32-4.02,6.61-2.07l0,0l0,0l0,0c-0.28,0.42-8.64,6.26,1.95,21.89c6.83,10.08,15.26,7.33,15.61,7.26l0.35,1.21    c0.48,1.67-0.75,3.35-2.49,3.36C747.2,572.57,747.18,572.57,747.16,572.57z"></path></g><path fill="#abbdff" d="M488.55,585.22c0,0,2.44-18.04,23-12.22C511.55,573,504.09,589.54,488.55,585.22z"></path><path fill="#abbdff" d="M489.74 585.07c0 0-.45-18.2-21.52-14.66C468.21 570.42 473.82 587.67 489.74 585.07zM486.82 609.11c0 0 1.98-18.1 22.68-12.8C509.5 596.31 502.46 613.03 486.82 609.11z"></path><path fill="#abbdff" d="M488 608.93c0 0-.91-18.19-21.89-14.1C466.11 594.83 472.15 611.94 488 608.93zM488.77 637.63c0 0-.64-18.2 20.61-15.92C509.38 621.71 504.81 639.27 488.77 637.63z"></path><path fill="#abbdff" d="M489.91 637.29c0 0-3.51-17.87-23.69-10.82C466.22 626.47 474.66 642.54 489.91 637.29zM494.04 667.13c0 0-3.41-17.89 17.94-18.88C511.98 648.25 510.15 666.31 494.04 667.13z"></path><path fill="#abbdff" d="M495.12 666.62c0 0-6.2-17.12-25.06-7.08C470.06 659.55 480.85 674.14 495.12 666.62zM490.49 575.83c0 0 10.06-8.57 6.08-22.24C496.56 553.59 478.19 560.94 490.49 575.83z"></path><circle cx="1367.16" cy="154.8" r="6.94" fill="#009444"></circle><circle cx="1400.17" cy="154.8" r="6.94" fill="#fff200"></circle><circle cx="1433.18" cy="154.8" r="6.94" fill="#ed1c24"></circle><circle cx="467.88" cy="326.69" r="17.86" fill="none" stroke="#603913" stroke-miterlimit="10"></circle><circle cx="586.21" cy="335.16" r="26.34" fill="#fff"></circle><text fill="#00aeef" font-family="FredokaOne-Regular" font-size="33.152" transform="translate(579.58 345.938)">$</text><text fill="#00aeef" font-family="FredokaOne-Regular" font-size="33.152" transform="translate(663.528 345.938)">$</text><circle cx="1352.96" cy="397.7" r="4.13" fill="#fff"></circle><circle cx="1372.74" cy="397.7" r="4.13" fill="#fff"></circle><circle cx="1392.51" cy="397.7" r="4.13" fill="#fff"></circle></svg>